ply
format ascii 1.0
element vertex 6
property float x
property float y
property float z
property uchar red
property uchar green
property uchar blue
property float a
property float quaternion_x
property float quaternion_y
property float quaternion_z
property float quaternion_w
property float scalar_1
property float scalar_2
property float scalar_3
end_header
0.0 0.0 0.0 255 0 0 1.0 0.0 0.0 0.0 1.0 0.1 0.2 0.3
1.0 0.0 0.0 0 255 0 1.0 0.0 0.0 0.0 1.0 0.4 0.5 0.6
0.0 1.0 0.0 0 0 255 1.0 0.0 0.0 0.0 1.0 0.7 0.8 0.9
1.0 1.0 0.0 255 255 0 1.0 0.707 0.0 0.707 0.0 0.1 0.2 0.3
0.5 0.5 1.0 255 0 255 1.0 0.0 0.707 0.0 0.707 0.4 0.5 0.6
0.5 0.5 -1.0 0 255 255 1.0 0.707 0.707 0.0 0.0 0.7 0.8 0.9